<svg xmlns="http://www.w3.org/2000/svg" viewBox="0 0 36 36"><defs xmlns="http://www.w3.org/2000/svg"><linearGradient gradientTransform="rotate(150, 0.5, 0.5)" x1="50%" y1="0%" x2="50%" y2="100%" id="ffflux-gradient"><stop stop-color="hsl(315, 100%, 72%)" stop-opacity="1" offset="0%"/><stop stop-color="hsl(21, 100%, 50%)" stop-opacity="1" offset="100%"/></linearGradient><filter id="ffflux-filter" x="-20%" y="-20%" width="140%" height="140%" filterUnits="objectBoundingBox" primitiveUnits="userSpaceOnUse" color-interpolation-filters="sRGB"><feTurbulence type="fractalNoise" baseFrequency="0.001 0.001" numOctaves="2" seed="234" stitchTiles="stitch" x="0%" y="0%" width="100%" height="100%" result="turbulence"/><feGaussianBlur stdDeviation="20 0" x="0%" y="0%" width="100%" height="100%" in="turbulence" edgeMode="duplicate" result="blur"/><feBlend mode="color-dodge" x="0%" y="0%" width="100%" height="100%" in="SourceGraphic" in2="blur" result="blend"/></filter></defs><path fill="url(#ffflux-gradient)" d="M27.287 34.627c-.404 0-.806-.124-1.152-.371L18 28.422l-8.135 5.834c-.693.496-1.623.496-2.312-.008-.689-.499-.979-1.385-.721-2.194l3.034-9.792-8.062-5.681c-.685-.505-.97-1.393-.708-2.203.264-.808 1.016-1.357 1.866-1.363L12.947 13l3.179-9.549c.268-.809 1.023-1.353 1.874-1.353.851 0 1.606.545 1.875 1.353L23 13l10.036.015c.853.006 1.606.556 1.867 1.363.263.81-.022 1.698-.708 2.203l-8.062 5.681 3.034 9.792c.26.809-.033 1.695-.72 2.194-.347.254-.753.379-1.16.379z"/></svg>